<svg xmlns="http://www.w3.org/2000/svg" id="Bars_Search_Bar__Resources_Search_Glyph" width="15.566" height="15.566" data-name="Bars/Search Bar/_Resources/Search Glyph" viewBox="0 0 15.566 15.566">
    <path id="Bars_Search_Bar__Resources_Search_Glyph_background" fill="none" d="M0 0H15.566V15.566H0z" data-name="Bars/Search Bar/_Resources/Search Glyph background"/>
    <path id="Search" fill="#fff" d="M14.647 15.565a.924.924 0 0 1-.665-.285l-4.258-4.26a5.974 5.974 0 0 1-3.585 1.18h-.024A6.126 6.126 0 0 1 1.767 1.773 6.089 6.089 0 0 1 6.045 0h.026a6.151 6.151 0 0 1 6.115 6.124 5.989 5.989 0 0 1-1.168 3.593l4.262 4.263a.919.919 0 0 1-.633 1.585zM6.053 1.221A4.865 4.865 0 0 0 2.658 9.54a4.892 4.892 0 0 0 3.453 1.444h.019a4.882 4.882 0 0 0-.055-9.763z"/>
</svg>
