<svg xmlns="http://www.w3.org/2000/svg" width="15" height="15" viewBox="0 0 15 15">
    <g id="grid" style="isolation:isolate">
        <path id="Path_19591" data-name="Path 19591" fill="#fff" d="M1171.1 329.233h-5.385a.577.577 0 0 1-.577-.577v-5.385a.577.577 0 0 1 .577-.577h5.385a.577.577 0 0 1 .577.577v5.385a.577.577 0 0 1-.577.577zm-4.808-1.154h4.231v-4.231h-4.231z" transform="translate(-1165.138 -322.695)"/>
        <path id="Path_19592" data-name="Path 19592" fill="#fff" d="M1182.1 329.233h-5.385a.577.577 0 0 1-.577-.577v-5.385a.577.577 0 0 1 .577-.577h5.385a.577.577 0 0 1 .577.577v5.385a.577.577 0 0 1-.577.577zm-4.808-1.154h4.231v-4.231h-4.231z" transform="translate(-1167.677 -322.695)"/>
        <path id="Path_19593" data-name="Path 19593" fill="#fff" d="M1182.1 340.233h-5.385a.577.577 0 0 1-.577-.577v-5.385a.577.577 0 0 1 .577-.577h5.385a.577.577 0 0 1 .577.577v5.385a.577.577 0 0 1-.577.577zm-4.808-1.154h4.231v-4.231h-4.231z" transform="translate(-1167.677 -325.234)"/>
        <path id="Path_19594" data-name="Path 19594" fill="#fff" d="M1171.1 340.233h-5.385a.577.577 0 0 1-.577-.577v-5.385a.577.577 0 0 1 .577-.577h5.385a.577.577 0 0 1 .577.577v5.385a.577.577 0 0 1-.577.577zm-4.808-1.154h4.231v-4.231h-4.231z" transform="translate(-1165.138 -325.234)"/>
    </g>
</svg>
